<?xml version="1.0" standalone="no"?>
<!DOCTYPE svg PUBLIC "-//W3C//DTD SVG 20010904//EN"
 "http://www.w3.org/TR/2001/REC-SVG-20010904/DTD/svg10.dtd">
<svg version="1.0" xmlns="http://www.w3.org/2000/svg"
 width="52.000000pt" height="52.000000pt" viewBox="0 0 52.000000 52.000000"
 preserveAspectRatio="xMidYMid meet">

<g transform="translate(0.000000,52.000000) scale(0.100000,-0.100000)"
fill="#000000" stroke="none">
<path d="M210 503 c-56 -29 -80 -74 -80 -153 0 -58 2 -66 18 -65 9 0 23 4 30
9 13 8 16 -3 6 -28 -7 -18 -34 -22 -34 -4 0 6 -3 8 -7 5 -3 -4 0 -32 7 -62 16
-67 9 -85 -64 -157 l-48 -49 58 3 c50 3 59 6 62 23 6 41 35 82 53 78 9 -3 26
0 36 6 15 10 14 10 -8 5 -34 -7 -59 19 -32 35 10 6 14 11 8 12 -5 0 1 5 15 9
l25 8 -27 1 c-32 1 -36 15 -10 31 14 9 13 10 -7 4 -23 -6 -24 -6 -17 50 7 53
6 56 -19 68 -57 26 7 66 88 55 79 -11 104 -71 62 -153 -14 -27 -25 -55 -25
-63 0 -8 -7 -23 -17 -33 -9 -10 -11 -18 -5 -18 20 0 77 78 91 124 7 25 17 43
22 40 11 -7 29 39 29 74 0 15 -5 44 -10 64 -21 76 -127 119 -200 81z"/>
<path d="M230 310 c0 -17 7 -20 41 -20 34 0 39 3 30 13 -6 8 -8 17 -4 20 3 4
-10 7 -30 7 -30 0 -37 -4 -37 -20z"/>
<path d="M365 170 c-4 -17 -19 -46 -34 -63 -15 -18 -40 -49 -55 -69 l-28 -38
116 0 c79 0 116 4 116 11 0 6 -15 32 -34 58 -18 25 -37 57 -41 71 -4 14 -13
33 -20 43 -12 17 -14 16 -20 -13z"/>
</g>
</svg>
